<svg width="220" height="220" viewBox="0 0 220 220" xmlns="http://www.w3.org/2000/svg">
  <rect width="220" height="220" rx="40" fill="#fffdf6"></rect>
  <rect x="106" y="108" width="8" height="78" rx="4" fill="#5faa5d"></rect>
  <g fill="#f5c542">
    <ellipse cx="110" cy="60" rx="12" ry="28"></ellipse>
    <ellipse cx="110" cy="60" rx="12" ry="28" transform="rotate(30 110 60)"></ellipse>
    <ellipse cx="110" cy="60" rx="12" ry="28" transform="rotate(60 110 60)"></ellipse>
    <ellipse cx="110" cy="60" rx="12" ry="28" transform="rotate(90 110 60)"></ellipse>
    <ellipse cx="110" cy="60" rx="12" ry="28" transform="rotate(120 110 60)"></ellipse>
    <ellipse cx="110" cy="60" rx="12" ry="28" transform="rotate(150 110 60)"></ellipse>
  </g>
  <circle cx="110" cy="60" r="24" fill="#7a4b2d"></circle>
  <circle cx="110" cy="60" r="18" fill="#8c5c38"></circle>
  <ellipse cx="90" cy="136" rx="18" ry="10" transform="rotate(-28 90 136)" fill="#7ac66e"></ellipse>
  <ellipse cx="132" cy="145" rx="18" ry="10" transform="rotate(30 132 145)" fill="#7ac66e"></ellipse>
</svg>